<mxfile host="app.diagrams.net" modified="2024-03-09T18:03:53.657Z" agent="Mozilla/5.0 (Macintosh; Intel Mac OS X 10_15_7) AppleWebKit/537.36 (KHTML, like Gecko) Chrome/122.0.0.0 Safari/537.36" etag="TaJ7rieJrmIqwzPzG6ID" version="24.0.4" type="github">
  <diagram name="PÃ¡gina-1" id="JB4pvxNtIi2QS4wPqD5o">
    <mxGraphModel dx="1234" dy="1155" grid="1" gridSize="10" guides="1" tooltips="1" connect="1" arrows="1" fold="1" page="1" pageScale="1" pageWidth="827" pageHeight="1169" math="0" shadow="0">
      <root>
        <mxCell id="0" />
        <mxCell id="1" parent="0" />
        <mxCell id="llSjOjMe8UMlQgn3ufUT-1" value="&lt;p style=&quot;margin:0px;margin-top:4px;text-align:center;&quot;&gt;&lt;i&gt;&amp;lt;&amp;lt;Interface&amp;gt;&amp;gt;&lt;/i&gt;&lt;br&gt;&lt;b&gt;Workable&lt;/b&gt;&lt;/p&gt;&lt;hr size=&quot;1&quot; style=&quot;border-style:solid;&quot;&gt;&lt;p style=&quot;margin:0px;margin-left:4px;&quot;&gt;+ work(): void&lt;/p&gt;" style="verticalAlign=top;align=left;overflow=fill;html=1;whiteSpace=wrap;" vertex="1" parent="1">
          <mxGeometry x="223" y="372" width="190" height="70" as="geometry" />
        </mxCell>
        <mxCell id="llSjOjMe8UMlQgn3ufUT-2" value="&lt;p style=&quot;margin:0px;margin-top:4px;text-align:center;&quot;&gt;&lt;b&gt;&lt;i&gt;Employee&lt;/i&gt;&lt;/b&gt;&lt;/p&gt;&lt;hr size=&quot;1&quot; style=&quot;border-style:solid;&quot;&gt;&lt;p style=&quot;margin:0px;margin-left:4px;&quot;&gt;# name: string&lt;/p&gt;&lt;p style=&quot;margin:0px;margin-left:4px;&quot;&gt;- id: string&lt;/p&gt;&lt;hr size=&quot;1&quot; style=&quot;border-style:solid;&quot;&gt;&lt;p style=&quot;margin:0px;margin-left:4px;&quot;&gt;# work(): void&lt;/p&gt;&lt;p style=&quot;margin:0px;margin-left:4px;&quot;&gt;+ getId(): string&lt;/p&gt;" style="verticalAlign=top;align=left;overflow=fill;html=1;whiteSpace=wrap;" vertex="1" parent="1">
          <mxGeometry x="238" y="542" width="160" height="110" as="geometry" />
        </mxCell>
        <mxCell id="llSjOjMe8UMlQgn3ufUT-3" value="" style="endArrow=block;dashed=1;endFill=0;endSize=12;html=1;rounded=0;entryX=0.5;entryY=1;entryDx=0;entryDy=0;exitX=0.5;exitY=0;exitDx=0;exitDy=0;" edge="1" parent="1" source="llSjOjMe8UMlQgn3ufUT-2" target="llSjOjMe8UMlQgn3ufUT-1">
          <mxGeometry width="160" relative="1" as="geometry">
            <mxPoint x="233" y="592" as="sourcePoint" />
            <mxPoint x="393" y="592" as="targetPoint" />
          </mxGeometry>
        </mxCell>
        <mxCell id="llSjOjMe8UMlQgn3ufUT-4" value="&lt;p style=&quot;margin:0px;margin-top:4px;text-align:center;&quot;&gt;&lt;b&gt;Developer&lt;/b&gt;&lt;/p&gt;&lt;hr size=&quot;1&quot; style=&quot;border-style:solid;&quot;&gt;&lt;p style=&quot;margin:0px;margin-left:4px;&quot;&gt;+ work(): void&lt;/p&gt;" style="verticalAlign=top;align=left;overflow=fill;html=1;whiteSpace=wrap;" vertex="1" parent="1">
          <mxGeometry x="128" y="737" width="160" height="60" as="geometry" />
        </mxCell>
        <mxCell id="llSjOjMe8UMlQgn3ufUT-5" value="Extends" style="endArrow=block;endSize=16;endFill=0;html=1;rounded=0;entryX=0.5;entryY=1;entryDx=0;entryDy=0;exitX=0.5;exitY=0;exitDx=0;exitDy=0;" edge="1" parent="1" source="llSjOjMe8UMlQgn3ufUT-4" target="llSjOjMe8UMlQgn3ufUT-2">
          <mxGeometry width="160" relative="1" as="geometry">
            <mxPoint x="343" y="617" as="sourcePoint" />
            <mxPoint x="503" y="617" as="targetPoint" />
          </mxGeometry>
        </mxCell>
        <mxCell id="llSjOjMe8UMlQgn3ufUT-6" value="&lt;p style=&quot;margin:0px;margin-top:4px;text-align:center;&quot;&gt;&lt;b&gt;Designer&lt;/b&gt;&lt;/p&gt;&lt;hr size=&quot;1&quot; style=&quot;border-style:solid;&quot;&gt;&lt;p style=&quot;margin:0px;margin-left:4px;&quot;&gt;+ work(): void&lt;/p&gt;" style="verticalAlign=top;align=left;overflow=fill;html=1;whiteSpace=wrap;" vertex="1" parent="1">
          <mxGeometry x="353" y="737" width="160" height="60" as="geometry" />
        </mxCell>
        <mxCell id="llSjOjMe8UMlQgn3ufUT-7" value="Extends" style="endArrow=block;endSize=16;endFill=0;html=1;rounded=0;exitX=0.5;exitY=0;exitDx=0;exitDy=0;entryX=0.5;entryY=1;entryDx=0;entryDy=0;" edge="1" parent="1" source="llSjOjMe8UMlQgn3ufUT-6" target="llSjOjMe8UMlQgn3ufUT-2">
          <mxGeometry width="160" relative="1" as="geometry">
            <mxPoint x="343" y="617" as="sourcePoint" />
            <mxPoint x="503" y="617" as="targetPoint" />
          </mxGeometry>
        </mxCell>
        <mxCell id="llSjOjMe8UMlQgn3ufUT-8" value="&lt;p style=&quot;margin:0px;margin-top:4px;text-align:center;&quot;&gt;&lt;b&gt;Team&lt;/b&gt;&lt;/p&gt;&lt;hr size=&quot;1&quot; style=&quot;border-style:solid;&quot;&gt;&lt;p style=&quot;margin:0px;margin-left:4px;&quot;&gt;- name: string&lt;/p&gt;&lt;p style=&quot;margin:0px;margin-left:4px;&quot;&gt;- members: Employee[]&lt;/p&gt;&lt;hr size=&quot;1&quot; style=&quot;border-style:solid;&quot;&gt;&lt;p style=&quot;margin:0px;margin-left:4px;&quot;&gt;+ work(): void&lt;/p&gt;" style="verticalAlign=top;align=left;overflow=fill;html=1;whiteSpace=wrap;" vertex="1" parent="1">
          <mxGeometry x="540" y="552" width="160" height="90" as="geometry" />
        </mxCell>
        <mxCell id="llSjOjMe8UMlQgn3ufUT-9" value="" style="endArrow=diamondThin;endFill=0;endSize=24;html=1;rounded=0;exitX=1;exitY=0.5;exitDx=0;exitDy=0;entryX=0;entryY=0.5;entryDx=0;entryDy=0;" edge="1" parent="1" source="llSjOjMe8UMlQgn3ufUT-2" target="llSjOjMe8UMlQgn3ufUT-8">
          <mxGeometry width="160" relative="1" as="geometry">
            <mxPoint x="413" y="596.62" as="sourcePoint" />
            <mxPoint x="573" y="596.62" as="targetPoint" />
          </mxGeometry>
        </mxCell>
      </root>
    </mxGraphModel>
  </diagram>
</mxfile>
